<svg width="107" height="53" viewBox="0 0 107 53" fill="none" xmlns="http://www.w3.org/2000/svg">
<path d="M93.4312 15.0228C86.9305 15.0228 81.6406 20.3416 81.6406 26.8802C81.6406 33.4188 86.9305 38.7376 93.4312 38.7376C99.9304 38.7376 105.219 33.4188 105.219 26.8802C105.219 20.3416 99.9304 15.0228 93.4312 15.0228ZM93.4312 33.118C90.0124 33.118 87.2279 30.3167 87.2279 26.8802C87.2279 23.4422 90.0124 20.6424 93.4312 20.6424C96.847 20.6424 99.633 23.4422 99.633 26.8802C99.633 30.3182 96.8485 33.118 93.4297 33.118H93.4312ZM58.7121 24.4788L56.6504 23.4437C55.7553 22.998 55.1941 22.653 54.9684 22.398C54.7533 22.1721 54.6308 21.8735 54.6253 21.5614C54.6253 21.1614 54.8053 20.824 55.159 20.5615C55.5098 20.2867 56.0084 20.1615 56.6413 20.1615C57.7987 20.1615 59.0811 20.8607 60.4932 22.2698L63.973 18.7692C63.118 17.6035 61.9998 16.6567 60.7097 16.006C59.4365 15.3647 58.0299 15.0341 56.6047 15.0411C54.4805 15.0411 52.7268 15.6686 51.3605 16.9326C49.9957 18.1967 49.3095 19.7157 49.3095 21.4973C49.3095 24.2605 51.1165 26.5627 54.7427 28.39L56.6413 29.3442C58.2775 30.1732 59.0918 31.0174 59.0918 31.8906C59.0918 32.3639 58.8646 32.773 58.4132 33.1364C57.9618 33.5012 57.3641 33.6737 56.623 33.6737C55.9367 33.6737 55.1499 33.4371 54.2639 32.9562C53.3811 32.4831 52.5957 31.847 51.9491 31.0815L48.4876 34.8737C50.4394 37.4384 53.0425 38.7299 56.3149 38.7299C58.7746 38.7299 60.7372 38.0567 62.1919 36.7194C63.6558 35.3836 64.3878 33.7104 64.3878 31.709C64.3878 30.2083 63.9822 28.8908 63.177 27.7718C62.3642 26.6527 60.8729 25.5627 58.7121 24.4803V24.4788ZM23.7062 36.1545V15.4946H18.1098V16.8777C16.2241 15.6643 14.0292 15.0203 11.7876 15.0228C5.28839 15.0228 0 20.3416 0 26.8802C0 33.4188 5.28839 38.7376 11.7891 38.7376C14.0038 38.7409 16.1738 38.1135 18.0458 36.9285C18.0458 37.1102 18.0366 37.2735 18.0366 37.3835C18.0366 40.8199 15.2521 43.6213 11.8348 43.6213C10.6729 43.6186 9.53531 43.2873 8.55322 42.6656L5.78551 47.5402C7.61054 48.6547 9.70621 49.2461 11.844 49.25C18.3447 49.25 23.7062 43.9297 23.7062 37.3911C23.7062 37.1377 23.723 36.3911 23.7062 36.1545ZM11.7891 33.1165C8.37328 33.1165 5.58727 30.3167 5.58727 26.8802C5.58727 23.4422 8.37175 20.6424 11.7891 20.6424C15.2064 20.6424 17.9909 23.4422 17.9909 26.8802C17.9909 30.3167 15.2064 33.118 11.7891 33.118V33.1165ZM45.9989 15.4869H40.375V26.7596C40.3842 28.361 40.3842 31.1258 39.21 32.3074C38.6488 32.8707 38.0343 33.3806 36.7412 33.3806C35.4389 33.3806 34.8244 32.8707 34.2647 32.3074C33.089 31.1242 33.0982 28.3519 33.1058 26.7596V15.4869H27.4835V26.726C27.4652 29.0434 27.4377 33.3455 30.2588 36.2003C31.9133 37.8735 33.885 38.7284 36.732 38.7284C39.5806 38.7284 41.5507 37.8827 43.2053 36.2003C46.0264 33.3455 45.9989 29.0343 45.9806 26.726L45.9989 15.4854V15.4869ZM77.868 32.1089C77.4166 32.4539 76.3217 33.2188 75.0835 33.0463C74.071 32.9089 73.249 32.1639 73.1225 29.6724V20.3248H79.7314V15.4686H73.1225V9.16666H67.5169V10.4032H67.5078V28.9366C67.5078 31.883 68.2489 38.7284 75.0744 38.7284C78.5283 38.675 80.625 36.7926 81.5034 36.0568L81.6208 35.9652L78.2569 31.8005C78.2477 31.8082 78.0129 31.999 77.868 32.1089Z" fill="#F45D48"/>
</svg>
