<svg width="88" height="53" viewBox="0 0 88 53" fill="none" xmlns="http://www.w3.org/2000/svg">
<g clip-path="url(#clip0_4_523)">
<path fill-rule="evenodd" clip-rule="evenodd" d="M86.7201 28.4683C86.7201 22.3588 83.7608 17.5381 78.1048 17.5381C72.4249 17.5381 68.9883 22.3588 68.9883 28.4206C68.9883 35.604 73.0454 39.2315 78.8685 39.2315C81.7084 39.2315 83.8563 38.5871 85.4791 37.6802V32.9072C83.8563 33.7186 81.9948 34.2198 79.6322 34.2198C77.3173 34.2198 75.2649 33.4084 75.0023 30.5923H86.6724C86.6724 30.282 86.7201 29.041 86.7201 28.4683ZM74.9307 26.2011C74.9307 23.5043 76.5774 22.3827 78.0809 22.3827C79.5367 22.3827 81.0879 23.5043 81.0879 26.2011H74.9307Z" fill="#635BFF"/>
<path fill-rule="evenodd" clip-rule="evenodd" d="M59.7762 17.538C57.4374 17.538 55.9339 18.6358 55.0986 19.3995L54.7884 17.9199H49.5381V45.7466L55.5044 44.4818L55.5282 37.7279C56.3874 38.3484 57.6522 39.2314 59.7523 39.2314C64.0242 39.2314 67.9142 35.7949 67.9142 28.2296C67.8904 21.3087 63.9526 17.538 59.7762 17.538ZM58.3443 33.9811C56.9363 33.9811 56.101 33.4799 55.5282 32.8594L55.5044 24.0055C56.1249 23.3134 56.984 22.8361 58.3443 22.8361C60.516 22.8361 62.0195 25.2703 62.0195 28.3967C62.0195 31.5946 60.5399 33.9811 58.3443 33.9811Z" fill="#635BFF"/>
<path fill-rule="evenodd" clip-rule="evenodd" d="M41.3284 16.1299L47.3185 14.8412V9.99661L41.3284 11.2615V16.1299Z" fill="#635BFF"/>
<path d="M47.3185 17.9437H41.3284V38.8257H47.3185V17.9437Z" fill="#635BFF"/>
<path fill-rule="evenodd" clip-rule="evenodd" d="M34.9084 19.7097L34.5265 17.9437H29.3717V38.8257H35.338V24.6737C36.746 22.8361 39.1325 23.1702 39.8723 23.4327V17.9437C39.1086 17.6573 36.3164 17.1323 34.9084 19.7097Z" fill="#635BFF"/>
<path fill-rule="evenodd" clip-rule="evenodd" d="M22.976 12.7649L17.1529 14.0059L17.129 33.1219C17.129 36.6539 19.7781 39.2552 23.3101 39.2552C25.2671 39.2552 26.699 38.8972 27.4865 38.4677V33.6231C26.7228 33.9333 22.9521 35.0311 22.9521 31.4991V23.0269H27.4865V17.9437H22.9521L22.976 12.7649Z" fill="#635BFF"/>
<path fill-rule="evenodd" clip-rule="evenodd" d="M6.84342 24.0055C6.84342 23.0748 7.6071 22.7168 8.87195 22.7168C10.6857 22.7168 12.9768 23.2657 14.7905 24.2442V18.6359C12.8097 17.8483 10.8528 17.5381 8.87195 17.5381C4.02733 17.5381 0.805542 20.0678 0.805542 24.2919C0.805542 30.8787 9.87429 29.8286 9.87429 32.6685C9.87429 33.7663 8.91968 34.1243 7.58324 34.1243C5.60243 34.1243 3.07273 33.3129 1.06806 32.2151V37.895C3.28751 38.8496 5.53084 39.2553 7.58324 39.2553C12.5472 39.2553 15.9599 36.7972 15.9599 32.5254C15.936 25.4135 6.84342 26.6784 6.84342 24.0055Z" fill="#635BFF"/>
</g>
<defs>
<clipPath id="clip0_4_523">
<rect width="86.6667" height="52" fill="white" transform="translate(0.805542 0.5)"/>
</clipPath>
</defs>
</svg>
