<svg width="179" height="53" viewBox="0 0 179 53" fill="none" xmlns="http://www.w3.org/2000/svg">
<g clip-path="url(#clip0_4_524)">
<path d="M55.1715 33.061C54.6569 33.1896 54.0137 33.3183 53.3704 33.3183C52.084 33.3183 51.5694 32.5464 51.5694 31.2599V25.4709H55.1715C56.072 25.4709 56.9725 24.8276 56.9725 23.7985C56.9725 22.7693 56.2006 22.1261 55.1715 22.1261H51.5694V20.1964C51.5694 19.0386 50.6689 18.2667 49.6397 18.2667C48.6105 18.2667 47.71 19.1672 47.71 20.1964V31.3886C47.71 34.6047 49.2538 36.9204 52.8559 36.9204C53.885 36.9204 55.3001 36.7917 56.3293 36.2771C57.2298 35.8912 57.4871 35.248 57.4871 34.6047C57.4871 33.7042 56.5866 32.8037 55.1715 33.061ZM68.0361 21.6115C67.5215 21.4829 66.4923 21.3542 65.5918 21.3542C62.3756 21.3542 60.5746 23.2839 60.5746 26.2428V34.9907C60.5746 36.0198 61.4751 36.9204 62.5043 36.9204C63.5335 36.9204 64.434 36.0198 64.434 34.9907V27.0146C64.434 25.7282 64.9486 25.2136 65.8491 25.2136C66.7496 25.2136 67.2642 25.4709 68.0361 25.4709C69.1939 25.4709 69.8371 24.4417 69.8371 23.6698C69.7085 22.6407 69.1939 21.9974 68.0361 21.6115ZM78.7137 21.3542C75.1116 21.3542 72.5387 23.6698 72.1527 27.4006C72.1527 28.3011 72.0241 29.8448 72.1527 31.0026C72.41 34.6047 74.9829 37.049 78.8423 37.049C80.6434 37.049 82.3158 36.6631 83.3449 36.0198C84.1168 35.5052 84.2454 34.9907 84.2454 34.4761C84.2454 33.4469 83.3449 32.4178 81.8012 32.9323C80.9006 33.3183 79.8715 33.5756 78.8423 33.5756C77.0413 33.5756 75.6262 32.675 75.6262 30.874V30.4881H82.959C84.2454 30.4881 84.8887 29.7162 84.8887 28.5584V27.9151C85.0173 23.9271 82.4444 21.3542 78.7137 21.3542ZM81.1579 27.9151H75.7548C75.7548 25.9855 76.6553 24.699 78.7137 24.699C80.5147 24.699 81.5439 25.8568 81.4152 27.5292C81.4152 27.7865 81.4152 27.9151 81.1579 27.9151ZM94.1512 21.3542C90.5491 21.3542 87.9762 23.6698 87.5902 27.4006C87.5902 28.3011 87.4616 29.8448 87.5902 31.0026C87.8475 34.6047 90.4204 37.049 94.2798 37.049C96.0809 37.049 97.7533 36.6631 98.7824 36.0198C99.5543 35.5052 99.6829 34.9907 99.6829 34.4761C99.6829 33.4469 98.7824 32.4178 97.2387 32.9323C96.3382 33.3183 95.309 33.5756 94.2798 33.5756C92.4788 33.5756 91.0637 32.675 91.0637 30.874V30.4881H98.3965C99.6829 30.4881 100.326 29.7162 100.326 28.5584V27.9151C100.455 23.9271 97.8819 21.3542 94.1512 21.3542ZM96.5954 27.9151H91.1923C91.1923 25.9855 92.0928 24.699 94.1512 24.699C95.9522 24.699 96.9814 25.8568 96.8527 27.5292C96.8527 27.7865 96.8527 27.9151 96.5954 27.9151ZM159.117 27.7865L157.059 27.2719C155.773 27.0146 155.387 26.6287 155.387 25.9855C155.387 25.3422 156.03 24.8276 157.445 24.8276C158.217 24.8276 159.117 25.0849 159.889 25.4709C160.79 25.9855 161.819 25.8568 162.333 25.2136C162.977 24.5704 162.977 23.4125 162.205 22.6407C161.176 21.8688 159.375 21.3542 157.574 21.3542C154.229 21.3542 151.785 23.0266 151.785 26.1141C151.785 28.5584 153.586 29.8448 155.901 30.4881C157.059 30.7454 156.93 30.7454 157.96 31.0026C159.117 31.2599 159.632 31.7745 159.632 32.2891C159.632 33.061 158.989 33.5756 157.445 33.5756C156.158 33.5756 155.001 33.1896 154.1 32.675C153.2 32.0318 152.17 32.2891 151.656 33.061C151.141 33.8329 151.27 34.862 152.042 35.3766C153.071 36.2771 154.743 37.049 157.445 37.049C160.79 37.049 163.363 35.248 163.363 32.1605C163.363 29.8448 161.948 28.4297 159.117 27.7865ZM176.999 30.4881C178.286 30.4881 178.929 29.7162 178.929 28.5584V27.9151C178.929 23.9271 176.356 21.3542 172.625 21.3542C169.023 21.3542 166.45 23.6698 166.064 27.4006C166.064 28.3011 165.936 29.8448 166.064 31.0026C166.321 34.6047 168.894 37.049 172.754 37.049C174.555 37.049 176.227 36.6631 177.256 36.0198C178.028 35.5052 178.157 34.9907 178.157 34.4761C178.157 33.4469 177.256 32.4178 175.713 32.9323C174.812 33.3183 173.783 33.5756 172.754 33.5756C170.953 33.5756 169.538 32.675 169.538 30.874V30.4881H176.999ZM172.625 24.699C174.426 24.699 175.455 25.8568 175.327 27.5292C175.327 27.7865 175.198 27.9151 175.069 27.9151H169.666C169.666 25.9855 170.695 24.699 172.625 24.699ZM125.541 21.3542C121.681 21.3542 118.851 23.7985 118.465 27.1433C118.337 28.3011 118.337 30.1021 118.465 31.2599C118.723 34.6047 121.681 37.049 125.541 37.049C129.4 37.049 132.23 34.6047 132.488 31.2599C132.616 30.1021 132.616 28.4297 132.488 27.2719C132.23 23.7985 129.4 21.3542 125.541 21.3542ZM128.628 30.6167C128.5 32.2891 127.342 33.3183 125.541 33.3183C123.74 33.3183 122.582 32.1605 122.453 30.6167C122.453 29.8448 122.453 28.5584 122.453 27.7865C122.582 26.1141 123.74 25.0849 125.541 25.0849C127.342 25.0849 128.5 26.2428 128.628 27.7865C128.757 28.5584 128.757 29.8448 128.628 30.6167ZM110.232 21.3542C108.817 21.3542 107.273 21.8688 106.758 22.512V18.3954C106.758 17.2375 105.987 16.4657 104.957 16.4657C103.928 16.4657 103.156 17.3662 103.156 18.3954V34.9907C103.156 36.0198 104.057 36.9204 105.086 36.9204C106.115 36.9204 106.887 36.0198 106.887 34.9907V26.3714C107.53 25.7282 108.56 25.2136 109.846 25.2136C111.39 25.2136 112.29 26.1141 112.29 27.9151V34.9907C112.29 36.1485 113.062 37.049 114.091 37.049C115.249 37.049 116.021 36.1485 116.021 34.9907V27.6579C115.892 23.5412 113.834 21.3542 110.232 21.3542ZM146.253 21.4829C145.224 21.4829 144.323 22.3834 144.323 23.4125V32.5464C143.68 32.9323 142.779 33.3183 141.621 33.3183C140.078 33.3183 138.92 32.4178 138.92 30.6167V23.4125C138.92 22.2547 138.019 21.3542 136.99 21.3542C135.832 21.3542 135.189 22.2547 135.189 23.4125V30.7454C135.189 34.7334 137.505 36.9204 141.493 36.9204C144.452 36.9204 146.51 35.8912 147.411 35.248C147.925 34.9907 148.054 34.6047 148.054 33.9615V23.4125C148.054 22.3834 147.282 21.4829 146.253 21.4829Z" fill="#3E474F"/>
<path d="M33.559 13.5069C32.1439 12.735 29.9569 14.0215 28.6705 16.3371L26.2262 20.4538C25.3257 22.1262 25.4543 24.1845 26.6121 25.8569L26.7408 25.9855C27.8986 27.5293 29.3137 29.073 29.8283 29.5876C30.0856 29.8449 30.3429 30.2308 30.4715 30.7454C30.8574 32.1605 30.0856 33.7043 28.5418 34.0902C27.1267 34.4762 25.583 33.7043 25.197 32.1605C25.0684 31.7746 25.0684 31.3887 25.0684 31.1314C25.197 30.4881 24.9397 29.5876 24.0392 28.5585C23.1387 27.6579 21.4663 29.459 20.8231 31.26V31.3887C20.3085 33.1897 19.9225 34.8621 20.0512 34.9907C20.0512 35.1194 20.1798 35.1194 20.1798 35.248C20.9517 36.7918 20.4371 38.5928 18.8934 39.3647C17.3496 40.1366 15.5486 39.622 14.7767 38.0782C14.0048 36.5345 14.5194 34.7335 16.0632 33.9616C16.1918 33.9616 16.1918 33.8329 16.3205 33.8329C16.4491 33.8329 16.7064 33.0611 17.0923 32.0319C17.3496 31.1314 17.4783 30.7454 17.6069 30.3595C17.7356 29.8449 17.9929 28.5585 17.8642 28.0439C17.7356 27.4006 17.0923 27.4006 16.4491 27.7866C16.0632 28.0439 15.2913 28.6871 15.034 28.9444C14.3908 29.459 13.8762 30.2308 13.6189 30.8741C13.4902 31.1314 13.233 31.5173 12.9757 31.7746C11.8179 32.6751 10.1455 32.5465 9.11629 31.3887C8.21577 30.2308 8.34442 28.5585 9.50223 27.5293C9.88817 27.272 10.2741 27.0147 10.66 27.0147C11.3033 26.8861 13.6189 25.471 15.034 24.4418C15.2913 24.3131 15.6772 23.9272 15.8059 23.7986C16.1918 23.284 15.8059 22.898 15.4199 22.898C14.2621 23.0267 12.9757 23.1553 12.7184 23.5413C12.5897 23.6699 12.4611 23.9272 12.2038 24.0558C11.1746 24.8277 9.63088 24.5704 8.859 23.5413C8.08713 22.5121 8.34442 20.9683 9.37358 20.1965C9.75952 19.8105 10.4028 19.6819 10.7887 19.6819C11.6892 19.6819 14.0048 20.1965 15.8059 19.8105L16.3205 19.6819C18.2501 19.296 20.5658 17.6236 21.4663 15.9512C21.4663 15.9512 22.3668 14.4074 23.396 12.4777C24.5538 10.548 24.4251 8.36105 23.2673 7.71782L21.0804 6.43137C19.9225 5.78814 18.2501 5.78814 17.0923 6.43137L2.16942 14.922C1.0116 15.5652 0.111084 17.109 0.111084 18.3954V34.8621C0.111084 36.1486 1.0116 37.6923 2.16942 38.3355L17.0923 46.8262C18.2501 47.4694 20.0512 47.4694 21.0804 46.8262L36.0033 38.3355C37.1611 37.6923 38.0616 36.1486 38.0616 34.8621V18.3954C38.0616 17.109 37.1611 15.5652 36.0033 14.922C36.0033 14.922 34.9741 14.2788 33.559 13.5069Z" fill="#5FCF80"/>
</g>
<defs>
<clipPath id="clip0_4_524">
<rect width="178.75" height="52" fill="white" transform="translate(0.111084 0.5)"/>
</clipPath>
</defs>
</svg>
