<svg width="124" height="53" viewBox="0 0 124 53" fill="none" xmlns="http://www.w3.org/2000/svg">
<g clip-path="url(#clip0_4_525)">
<path d="M34.3979 34.1741C30.9492 34.1741 28.6662 31.5617 28.0293 30.5497C28.8465 24.148 31.2378 22.124 34.3979 22.124C37.5223 22.124 39.9496 24.5717 39.9496 28.149C39.9496 31.7264 37.5223 34.1741 34.3979 34.1741ZM34.3979 18.1936C28.7744 18.1936 25.6261 21.7827 24.7249 25.4778C23.7035 23.5949 22.9465 21.0767 22.3577 18.7349H14.5831V28.2079C14.5831 31.6441 12.9849 34.1859 9.8607 34.1859C6.73645 34.1859 4.94604 31.6441 4.94604 28.2079L4.98208 18.7349H0.5V28.2079C0.5 30.9733 1.41324 33.4799 3.0835 35.2685C4.80184 37.116 7.14501 38.081 9.8607 38.081C15.268 38.081 19.0412 34.0212 19.0412 28.2079V21.8416C19.6059 23.9362 20.9518 27.9608 23.5232 31.4911L21.12 44.8946H25.6742L27.2603 35.398C27.777 35.8216 28.3297 36.1982 28.9185 36.5395C30.4446 37.4809 32.1869 38.0104 33.9894 38.0692C33.9894 38.0692 34.2657 38.081 34.41 38.081C39.9856 38.081 44.4195 33.8565 44.4195 28.149C44.4195 22.4417 39.9735 18.1936 34.3979 18.1936Z" fill="#14A800"/>
<path d="M98.7935 20.7599V18.7359H94.3956V37.4818H98.8536V30.1388C98.8536 25.62 99.2742 22.3721 105.463 22.7957V18.5123C102.579 18.3005 100.332 18.8888 98.7935 20.7599Z" fill="#14A800"/>
<path d="M67.8408 18.7363L64.6084 31.8455L61.1597 18.7363H55.4881L52.0273 31.8455L48.807 18.7363H44.2888L49.2396 37.4941H54.5989L58.3239 24.173L62.0128 37.4941H67.3721L72.6113 18.7363H67.8408Z" fill="#14A800"/>
<path d="M82.4287 34.1859C79.2565 34.1859 76.8773 31.7383 76.8773 28.149C76.8773 24.5599 79.2685 22.124 82.4287 22.124C85.5531 22.124 87.9804 24.5717 87.9804 28.149C87.9804 31.7264 85.5531 34.1859 82.4287 34.1859ZM82.4287 18.1936C76.8171 18.1936 72.4192 22.4535 72.4192 28.149C72.4192 33.8446 76.8171 38.0692 82.4287 38.0692C88.0043 38.0692 92.4384 33.8446 92.4384 28.149C92.4384 22.4535 88.0164 18.1936 82.4287 18.1936Z" fill="#14A800"/>
<path d="M111.856 28.2671H112.889L119.114 37.4929H124.149L116.987 27.2668C120.46 25.9371 122.791 22.4656 122.791 18.7352H118.345C118.345 22.7833 115.088 24.3131 111.856 24.3131V11.3333H107.386V37.4929H111.844L111.856 28.2671Z" fill="#14A800"/>
</g>
<defs>
<clipPath id="clip0_4_525">
<rect width="123.5" height="52" fill="white" transform="translate(0.5 0.5)"/>
</clipPath>
</defs>
</svg>
